<mxfile host="app.diagrams.net" modified="2023-03-28T07:54:47.773Z" agent="Mozilla/5.0 (Macintosh; Intel Mac OS X 10_15_7) AppleWebKit/537.36 (KHTML, like Gecko) Chrome/111.0.0.0 Safari/537.36" etag="FXJz-g_bLovNCS_eFwYx" version="21.1.1" type="github">
  <diagram name="第 1 页" id="yEkW-4PWhIQO3VgRNsW-">
    <mxGraphModel dx="1657" dy="443" grid="1" gridSize="10" guides="1" tooltips="1" connect="1" arrows="1" fold="1" page="1" pageScale="1" pageWidth="827" pageHeight="1169" math="0" shadow="0">
      <root>
        <mxCell id="0" />
        <mxCell id="1" parent="0" />
        <mxCell id="is7A1KgJGmSKfCmo3Mhu-1" value="觸控式防盜器" style="rounded=0;whiteSpace=wrap;html=1;" vertex="1" parent="1">
          <mxGeometry x="210" y="280" width="120" height="60" as="geometry" />
        </mxCell>
        <mxCell id="is7A1KgJGmSKfCmo3Mhu-2" value="" style="endArrow=classic;html=1;rounded=0;" edge="1" parent="1">
          <mxGeometry width="50" height="50" relative="1" as="geometry">
            <mxPoint x="210" y="310" as="sourcePoint" />
            <mxPoint x="70" y="310" as="targetPoint" />
            <Array as="points">
              <mxPoint x="130" y="290" />
              <mxPoint x="170" y="310" />
            </Array>
          </mxGeometry>
        </mxCell>
        <mxCell id="is7A1KgJGmSKfCmo3Mhu-3" value="supplier a" style="rounded=0;whiteSpace=wrap;html=1;" vertex="1" parent="1">
          <mxGeometry x="-50" y="290" width="120" height="60" as="geometry" />
        </mxCell>
        <mxCell id="is7A1KgJGmSKfCmo3Mhu-4" value="" style="endArrow=classic;html=1;rounded=0;exitX=0.207;exitY=1.017;exitDx=0;exitDy=0;exitPerimeter=0;entryX=0.988;entryY=0.069;entryDx=0;entryDy=0;entryPerimeter=0;" edge="1" parent="1" source="is7A1KgJGmSKfCmo3Mhu-1" target="is7A1KgJGmSKfCmo3Mhu-5">
          <mxGeometry width="50" height="50" relative="1" as="geometry">
            <mxPoint x="240" y="380" as="sourcePoint" />
            <mxPoint x="100" y="380" as="targetPoint" />
            <Array as="points">
              <mxPoint x="160" y="360" />
              <mxPoint x="200" y="380" />
            </Array>
          </mxGeometry>
        </mxCell>
        <mxCell id="is7A1KgJGmSKfCmo3Mhu-5" value="supplier b" style="rounded=0;whiteSpace=wrap;html=1;" vertex="1" parent="1">
          <mxGeometry x="20" y="400" width="120" height="60" as="geometry" />
        </mxCell>
      </root>
    </mxGraphModel>
  </diagram>
</mxfile>
